# xmcd
#
# Track frame offsets:
# 150
# 14839
# 29809
# 43729
# 58003
# 72123
# 90464
# 103616
#
# Disc length: 1556 seconds
#
#
# Revision: 0
# Processed by: cddbd v1.5.1PL2 Copyright (c) Steve Scherf et al.
# Submitted via: FreeRIP 2.944 
#
DISCID=6d061208
DTITLE=Walter Horton An offer you can't refuse - An offer you can't refuse
DYEAR=1963
DGENRE=Blues
TTITLE0=Easy
TTITLE1=Have a good time
TTITLE2=Mean mistreater
TTITLE3=In the mood
TTITLE4=West side blues
TTITLE5=Louise
TTITLE6=Tin pan alley
TTITLE7=Walters boogie, this is it
EXTD=Recorded at "Big Johns" club, \nWells street, Chicago, \nSummer 1963
EXTT0=
EXTT1=
EXTT2=
EXTT3=
EXTT4=
EXTT5=
EXTT6=
EXTT7=
PLAYORDER=
